<svg xmlns="http://www.w3.org/2000/svg" viewBox="0 0 229.07 202.37"><defs><style>.cls-1{fill:#c5b08f;}.cls-2{fill:#af9164;}</style></defs><title>Bag</title><g id="Layer_2" data-name="Layer 2"><g id="MainRoastingMachine"><path class="cls-1" d="M39.55,24.37s-15,50-14,71-30,88-25,93,10.6,14,25.3,14H215.09c17.46-10,16.46-74,8.46-89s-30-96-30-96Z"/><path class="cls-2" d="M32.55,6.37c9.16-11.32,36.5,1.5,46.5,3.5s55,5,61,0,38.5-11.5,49.5-9.5,19.5,2.5,22.5,9.5-1.5,31.5-6.5,35.5-45,3-45,3l-91,2-41.5-11.5C32.55,25.37,24.05,16.87,32.55,6.37Z"/></g></g></svg>