<svg xmlns="http://www.w3.org/2000/svg" viewBox="0 0 81.78 88.59"><defs><style>.cls-1{fill:#d8a160;}</style></defs><title>Lightbean</title><g id="Layer_2" data-name="Layer 2"><g id="LightBean"><path class="cls-1" d="M23.64,57.91C40.81,42.19,62.56,26.44,67.33,3.55,53.25-5.36,30,3,14.08,23.13c-16.32,20.66-18.76,46-5.71,57.24C10.45,72,17.3,63.85,23.64,57.91Z"/><path class="cls-1" d="M27.23,60.74C20.88,66.68,14,74.82,12,83.2c.22.2.45.38.68.57,13.82,10.9,38.47,2.71,55.06-18.31s18.84-46.9,5-57.8a20.43,20.43,0,0,0-1.81-1.28C66.15,29.28,44.39,45,27.23,60.74Z"/></g></g></svg>