<svg xmlns="http://www.w3.org/2000/svg" viewBox="0 0 777 626.12"><defs><style>.cls-1{fill:#6f1a07;}.cls-2{fill:#b4b7b8;}.cls-3{fill:#f7f3e3;}.cls-4{fill:#af9164;}.cls-5{fill:#b09266;}.cls-6{fill:#002856;}.cls-7{fill:#a2d45e;}.cls-8{fill:#c7893e;}.cls-9{fill:#f5e2d1;}.cls-10{fill:#b2b5b6;}.cls-11{fill:#711d0a;}</style></defs><title>Roastingmachine</title><g id="Layer_2" data-name="Layer 2"><g id="MainRoastingMachine"><rect class="cls-1" x="295.99" y="224.12" width="232.31" height="10.88"/><path class="cls-2" d="M553.3,284h-25V239.89H296v70.68c0,15.33,13.39,27.75,29.91,27.75H498.38A30.44,30.44,0,0,0,524,324.89H553.3Z"/><polygon class="cls-2" points="580 325.17 555.14 325.17 555.14 284.16 567.57 284.16 580 325.17"/><polygon class="cls-3" points="559.75 320.9 559.75 288.43 564.08 288.43 573.92 320.9 559.75 320.9"/><rect class="cls-4" x="162.88" width="139.34" height="49.61"/><polygon class="cls-4" points="255.22 100.33 302.23 52.67 162.88 52.67 209.89 100.33 255.22 100.33"/><polygon class="cls-1" points="256.41 243.57 256.41 102.56 136.01 102.56 136.01 243.57 129.32 243.57 129.32 102.56 107.59 102.56 107.59 243.57 72.89 243.57 72.89 338.32 291.1 338.32 291.1 243.57 256.41 243.57"/><rect class="cls-1" x="34.06" y="341.61" width="463.3" height="11.19"/><rect class="cls-1" x="34.06" y="356.09" width="463.3" height="11.19"/><rect class="cls-5" x="34.06" y="371.23" width="463.3" height="135.57"/><rect class="cls-3" x="72.73" y="382.15" width="218.19" height="104.03"/><rect class="cls-1" x="308.89" y="419.7" width="166" height="36"/><path class="cls-6" d="M339.58,430.66c.09,2,2.93,21.95-11.51,22.09s-12.37-23.52-12.2-25.37,23.2-.92,23.2-.92Z"/><path class="cls-7" d="M336.91,441.68s-2.5-4.78-7.54-5.34-5.4,3.8-11.44,2.31c2.16,5,5.1,7.42,9.82,7.93C333.39,447.19,336.91,441.68,336.91,441.68Z"/><path class="cls-8" d="M347,427c-6.11-4.31-9.26-4.35-18-4.35-8.18,0-13.09,2.49-13.12,4.73s9.12,2.23,13.12,2.23,16.31.87,16.65,4.35c.25,2.62-3.65,5.48-11.9,6.92a22.51,22.51,0,0,0-4.35-2.72c.85.54,2.44,1.73,3.8,2.82-1,.16-2.1.31-3.24.43a22.06,22.06,0,0,0-4.06-2.32c.79.46,2.28,1.47,3.52,2.38-1.63.16-3.38.27-5.26.32l3.66.34c-1.07.78-2.33,1.63-3,2a18.36,18.36,0,0,0,3.47-2c1.25.11,2.36.21,3.37.28-1.2,1-2.62,2-3.38,2.51a20.54,20.54,0,0,0,3.92-2.47c5.46.37,7.7,0,11.91-2C352.18,436.64,351.23,430,347,427Z"/><path class="cls-9" d="M328.08,423.64c-8.92,0-9.66,2.25-9.66,2.87s1.48,1.92,7.74,2.05,9.5,0,11.55-1.12a41,41,0,0,1-7.36.33,45.75,45.75,0,0,1-8.67-1C319.66,426.09,321.21,424.35,328.08,423.64Z"/><path class="cls-9" d="M331.75,426.9c4.46,0,5.67-1.13,5.67-1.44s-.73-1-3.86-1-8.38.65-9.41,1.22c1.66-.24,6.34-.57,7.23-.55a26.72,26.72,0,0,1,4.41.21C336.8,425.67,335.18,426.54,331.75,426.9Z"/><path class="cls-10" d="M359.23,443.3h.27v.22h-4.64v-.22h.28a1.28,1.28,0,0,0,.94-.39,1.39,1.39,0,0,0,.42-.94V430.21a1.34,1.34,0,0,0-.42-.93,1.27,1.27,0,0,0-.94-.38h-.28v-.21h4.64v.21h-.27a1.27,1.27,0,0,0-.94.38,1.3,1.3,0,0,0-.42.93V442a1.26,1.26,0,0,0,.41.94A1.3,1.3,0,0,0,359.23,443.3Zm14.68,3.39v.22a7.37,7.37,0,0,1-1.61.19c-2.32,0-4.56-1.16-6.74-3.48l-7-7.48,5-6.27a.66.66,0,0,0,.17-.38.73.73,0,0,0-.06-.3.64.64,0,0,0-.62-.31h-.21v-.19h4.47v.19h-.08a2.92,2.92,0,0,0-2.29,1l-4.94,5.7,7.21,7.69a12.37,12.37,0,0,0,3.14,2.47A7.36,7.36,0,0,0,373.91,446.69Z"/><path class="cls-10" d="M382.94,443.3h.17v.22h-4.77v-.22h.19a.79.79,0,0,0,.67-.28.88.88,0,0,0,.22-.54,1.81,1.81,0,0,0-.08-.51l-1.36-3.6h-5.72L370.84,442a1.51,1.51,0,0,0-.09.5.9.9,0,0,0,.23.53.79.79,0,0,0,.66.28h.2v.22h-4.26v-.22h.19a1.9,1.9,0,0,0,1-.33,2.5,2.5,0,0,0,.82-1l4.79-11.4a7.74,7.74,0,0,0,.78-2.18h.19L381.07,442a2.33,2.33,0,0,0,.81,1A1.92,1.92,0,0,0,382.94,443.3Zm-10.43-5.57h5.22l-2.55-6.8Z"/><path class="cls-10" d="M392.28,428.69h4.26v.21h-.19a1.9,1.9,0,0,0-1,.33,2.13,2.13,0,0,0-.8,1l-5.11,11.42a7.85,7.85,0,0,0-.78,2.18h-.2l-5.95-13.58a2.22,2.22,0,0,0-.81-1,2,2,0,0,0-1.05-.33h-.17v-.21h4.76v.21H385a.77.77,0,0,0-.66.28.9.9,0,0,0-.23.53,1.29,1.29,0,0,0,.11.5l4.43,11.1,4.62-11.1a1.74,1.74,0,0,0,.08-.5.88.88,0,0,0-.22-.53.79.79,0,0,0-.67-.28h-.19Z"/><path class="cls-10" d="M409.25,443.3h.17v.22h-4.77v-.22h.19a.79.79,0,0,0,.67-.28.88.88,0,0,0,.22-.54,1.51,1.51,0,0,0-.08-.51l-1.36-3.6h-5.72L397.15,442a1.8,1.8,0,0,0-.08.5.88.88,0,0,0,.22.53.79.79,0,0,0,.67.28h.19v.22h-4.26v-.22h.19a1.9,1.9,0,0,0,1-.33,2.52,2.52,0,0,0,.83-1l4.78-11.4a7.56,7.56,0,0,0,.79-2.18h.19L407.39,442a2.24,2.24,0,0,0,.8,1A1.92,1.92,0,0,0,409.25,443.3Zm-10.42-5.57H404l-2.54-6.8Z"/><path class="cls-10" d="M417,437.88a5.06,5.06,0,0,0-1.1,3.12,3.51,3.51,0,0,0,1.68,3.09,3.84,3.84,0,0,0,2.21.66,4.55,4.55,0,0,0,2.15-.49,3.55,3.55,0,0,0,1.93-3c0-.1,0-.2,0-.3a4.1,4.1,0,0,0-.43-1.69,4.66,4.66,0,0,0-1.41-1.67l-3.82-3a3.06,3.06,0,0,1-1.25-2.52,3.66,3.66,0,0,1,1-2.62,3.5,3.5,0,0,1,2.69-1.07,9,9,0,0,1,1.84.21h.85l0,2.61h-.21a2,2,0,0,0-.73-1.6,2.71,2.71,0,0,0-1.78-.59,2.45,2.45,0,0,0-2.51,2.54,2.27,2.27,0,0,0,.93,1.85L423,436.5a5.53,5.53,0,0,1,2.33,4.45,4.36,4.36,0,0,1-1.54,3.35,5.09,5.09,0,0,1-3.56,1.21,5.51,5.51,0,0,1-2.42-.51,4.43,4.43,0,0,1-2.46-4,4.86,4.86,0,0,1,.3-1.42,5.13,5.13,0,0,1,1.14-1.81Z"/><path class="cls-10" d="M441.26,443.3h.17v.22h-4.76v-.22h.19a.77.77,0,0,0,.66-.28.9.9,0,0,0,.23-.54,1.52,1.52,0,0,0-.09-.51l-1.35-3.6h-5.72L429.17,442a1.51,1.51,0,0,0-.09.5.94.94,0,0,0,.22.53.81.81,0,0,0,.67.28h.19v.22H425.9v-.22h.19a1.88,1.88,0,0,0,1-.33,2.44,2.44,0,0,0,.83-1l4.79-11.4a7.74,7.74,0,0,0,.78-2.18h.19L439.4,442a2.39,2.39,0,0,0,.8,1A1.94,1.94,0,0,0,441.26,443.3Zm-10.42-5.57h5.21l-2.54-6.8Z"/><path class="cls-10" d="M443.82,441.67a8.42,8.42,0,0,1,0-11.15,7.39,7.39,0,0,1,5.5-2.13,9.25,9.25,0,0,1,5.14,1.44l.43,3h-.19a4.72,4.72,0,0,0-1.88-2.81,6,6,0,0,0-3.5-1,5.45,5.45,0,0,0-4.36,2,8.74,8.74,0,0,0,0,10.25,5.55,5.55,0,0,0,4.36,2,7,7,0,0,0,2.61-.49,6.65,6.65,0,0,0,2.17-1.36v-3.75a.89.89,0,0,0-.28-.71,1.21,1.21,0,0,0-.8-.24h-.34v-.21h4.16v.21h-.32a1.22,1.22,0,0,0-.81.24.88.88,0,0,0-.25.71v3.5a7,7,0,0,1-1.31,1.29,7.38,7.38,0,0,1-2,1,8.57,8.57,0,0,1-2.78.43A7.44,7.44,0,0,1,443.82,441.67Z"/><path class="cls-10" d="M458.36,443.3a1.31,1.31,0,0,0,.95-.39,1.38,1.38,0,0,0,.41-.94V430.11a1.12,1.12,0,0,0-.4-.86,1.39,1.39,0,0,0-1-.35h-.25l0-.21h6.2a9.61,9.61,0,0,0,1.44-.13,6,6,0,0,0,1.09-.26V431h-.22v-.38a1.18,1.18,0,0,0-.35-.87,1.21,1.21,0,0,0-.83-.38H461.1v6.55h3.58a1,1,0,0,0,.72-.32,1,1,0,0,0,.29-.74v-.3h.22v3.35h-.22v-.32a1,1,0,0,0-.28-.72,1.09,1.09,0,0,0-.71-.32h-3.6v6.34h3a3.59,3.59,0,0,0,2.39-.7,5.25,5.25,0,0,0,1.38-2.08h.21l-1.23,3.44h-8.79v-.22Z"/><polygon class="cls-2" points="497.14 560.12 497.14 510.12 34.06 510.12 34 560.12 0 560.12 0 626.12 497 626.12 531.21 626.12 777 626.12 777 560.12 497.14 560.12"/><rect class="cls-11" x="34" y="546.12" width="463" height="14"/></g></g></svg>