<svg xmlns="http://www.w3.org/2000/svg" viewBox="0 0 147.84 99.35"><defs><style>.cls-1{fill:#b4b7b8;}</style></defs><title>Smoke</title><g id="Layer_2" data-name="Layer 2"><g id="Smoke"><path class="cls-1" d="M0,99.35C13.22,84.14,18,80.09,18,68.94,18,60.83,0,43.59,0,34.47S12,10.14,24,0C13.22,13.18,6,23.32,6,34.47S24,59.81,24,68.94,15.62,87.18,0,99.35Z"/><path class="cls-1" d="M61.9,99.35c13.22-15.21,18-19.26,18-30.41,0-8.11-18-25.35-18-34.47s12-24.33,24-34.47c-10.82,13.18-18,23.32-18,34.47s18,25.34,18,34.47S77.53,87.18,61.9,99.35Z"/><path class="cls-1" d="M123.81,99.35c13.22-15.21,18-19.26,18-30.41,0-8.11-18-25.35-18-34.47s12-24.33,24-34.47c-10.81,13.18-18,23.32-18,34.47s18,25.34,18,34.47S139.43,87.18,123.81,99.35Z"/></g></g></svg>