<svg xmlns="http://www.w3.org/2000/svg" viewBox="0 0 1164 703.5"><defs><style>.cls-1{fill:#2b2118;}</style></defs><title>Main</title><g id="Layer_2" data-name="Layer 2"><g id="LandingPage"><path class="cls-1" d="M1114.5,363.5c14-12,33-16,28-50-2.37-16.11,1.5-41.5,21.5-65.5-28.5,13.5-33.19,53.45-30.5,70.5,3,19-13,31-28,40-12,7.2-34.5,9.5-57,7l-13-1c-29-4-75-4-99-1l-12-1c-29-4-70-6-125.5.5,26-29,17-44,36-71l10-18c36-55,74-84,103-84,21.75,0,38.44-3.94,51.33-2.11L1016,184c15-4,45.57-7.4,58-19,15-14,44-51,46-73-14,30-48,63-66,71-16.45,7.31-11.5,6.5-47.5,13.5L990,178c-20,6-63,1-82,9l-12,7c-6,15.95-55,42-64,75l-7,10c-6,12.93-19.63,62.22-41,81-15.63,13.74-50,12-74,10l-27.5,8.5C661,383,646,383,615,394c-3-17,59.7-120.84,77-139,20-21,41-70,97-103-62,18-85,68-112,100l-24,21-10,17c2,21-42,82-62,94-38.5-19.5-48.5-33.5-57-68l-8-22c-5-6-9.82-30.64-13-39-8-21-9.22-20.4-12-35-4-21,38-119.95,39-148,1-29-15-32-16-72-8,34,6,50.75,6,71,0,21-14.5,53.5-19.5,64.5L489,149c0,14-5,51-13,71l7.5,25.5c11,13,22,59,27,74v10c7,14,16.5,44.5,34.5,62.5-24,6-106.5-11.5-113-23l-16-7c-9-31-31.09-61.88-44-72-19-14.88-22.19-13.12-37-13l-14,4c-24.5,8.5-75,7-95.5-.5L214,278c-25.5-10.5-52-14-86-16-33.18-1.95-70,7-87,6-13.13-.77-28-10-41-19,3,7,22.3,24.61,39,27,21,3,41-3,57-5s48,0,66,5l10,2c20,3,52,16,73,19s98.2-11,114-1c19,12,46,50,45,71-26,8-76.5.5-91.5-1.5s-105,20-119,21-80-17-97-14c16,2,72,25,98,24s76-20,117-18,209,29,232,53c7,38-9.76,231-21,272l115-2s-26-234-20-269c29-21,38.55-31.24,89-39,52-8,157-32,216-18l16-4c31-3,92.5,4.5,106.5,4.5,5,0,23.56.13,46.5-1Z"/></g></g></svg>