<?xml version="1.0" encoding="utf-8"?>
<!-- Generator: Adobe Illustrator 22.0.1, SVG Export Plug-In . SVG Version: 6.00 Build 0)  -->
<svg version="1.1" id="Layer_1" xmlns="http://www.w3.org/2000/svg" xmlns:xlink="http://www.w3.org/1999/xlink" x="0px" y="0px"
	 viewBox="0 0 1248.5 715.5" style="enable-background:new 0 0 1248.5 715.5;" xml:space="preserve">
<style type="text/css">
	.st0{fill:#2B2118;}
	.st1{fill:#009E00;}
	.st2{fill:#D12A3A;}
</style>
<path id="main" class="st0" d="M641,453.5c-6,35,25.7,262,25.7,262H553c11.2-41,35-224,28-262l-5.5-49.5l36-8l34,10L641,453.5z"/>
<path id="m-branch-6" class="st0" d="M803.7,379.2c-17.6,7.2-44.4,5.8-64.2,4.1l-27.5,8.5c-21.5,4.5-36.5,4.5-67.5,15.5l-4.5,47.5
	c29-21,45.5-40.2,96-48c52-8,157-32,216-18l16-4c31-3,92.5,4.5,106.5,4.5c5,0,23.6,0.1,46.5-1l23-11.5c14-12,33-16,28-50
	c-2.4-16.1,1.5-41.5,21.5-65.5c-28.5,13.5-33.2,53.5-30.5,70.5c3,19-13,31-28,40c-12,7.2-34.5,9.5-57,7l-13-1c-29-4-75-4-99-1l-12-1
	c-29-4-70-6-125.5,0.5L803.7,379.2z"/>
<path id="m-branch-5" class="st0" d="M828.2,377.2c26-29,17-44,36-71l10-18c36-55,74-84,103-84c21.8,0,38.4-3.9,51.3-2.1l16.7-3.9
	c15-4,45.6-7.4,58-19c15-14,44-51,46-73c-14,30-48,63-66,71c-16.4,7.3-11.5,6.5-47.5,13.5l-16.5,1.5c-20,6-63,1-82,9l-12,7
	c-6,15.9-55,42-64,75l-7,10c-6,12.9-19.6,62.2-41,81c-2.7,2.4-6.1,4.4-9.8,5.9L828.2,377.2z"/>
<path id="m-branch-4" class="st0" d="M644.5,407.5c-3-17,59.7-120.8,77-139c20-21,41-70,97-103c-62,18-85,68-112,100l-24,21l-10,17
	c2,21-42,82-62,94L644.5,407.5z"/>
<path id="m-branch-3_1_" class="st0" d="M612.2,397c-38.5-19.5-48.5-33.5-57-68l-8-22c-5-6-9.8-30.6-13-39c-8-21-9.2-20.4-12-35
	c-4-21,38-119.9,39-148c1-29-15-32-16-72c-8,34,6,50.8,6,71c0,21-14.5,53.5-19.5,64.5L520.2,162c0,14-5,51-13,71l7.5,25.5
	c11,13,22,59,27,74v10c7,14,16.5,44.5,34.5,62.5L612.2,397z"/>
<path id="m-branch-2_2_" class="st0" d="M437,383.4c1-21-26-59-45-71c-15.8-10-93,4-114,1s-53-16-73-19l-10-2c-18-5-50-7-66-5
	s-36,8-57,5c-16.7-2.4-36-20-39-27c13,9,27.9,18.2,41,19c17,1,53.8-8,87-6c34,2,60.5,5.5,86,16l11.5,2.5c20.5,7.5,71,9,95.5,0.5
	l14-4c14.8-0.1,18-1.9,37,13c12.9,10.1,35,41,44,72L437,383.4z"/>
<path id="m-branch-1" class="st0" d="M448.3,376.8l16,7c6.5,11.5,89,29,113,23l5.5,49.5c-23-24-198-61-239-63s-91,17-117,18
	s-82-22-98-24c17-3,83,15,97,14s104-23,119-21s65.5,9.5,91.5,1.5L448.3,376.8z"/>
<path id="s-branch-20" class="st0" d="M1143.8,376.7c21,2,56.5-1.5,90.5-13.5c-17.9,17.3-72.7,23.1-113.5,25L1143.8,376.7z"/>
<path id="s-branch-19" class="st0" d="M1076.7,379.2c-2-22,13-61,29-91c-24,25-36,71-42,90L1076.7,379.2z"/>
<path id="s-branch-18" class="st0" d="M966.3,384.4c26,11,77.5,42.5,87,73c-28-32-68.2-60.8-103-69L966.3,384.4z"/>
<path id="s-branch-17" class="st0" d="M965,377.5c9-24,38.5-44.5,64.5-60.5c-40,9-69.5,46.5-76.5,59.5L965,377.5z"/>
<path id="s-branch-15" class="st0" d="M1043.2,197.9c14,8,10,7,26,16c13.6,7.7,12,13,48,22c-31,4-69.4-23.8-79-30
	c-3.5-2.2-7.5-3.6-11.7-4.1L1043.2,197.9z"/>
<path id="s-branch-16" class="st0" d="M867.8,298.5c17.9-25.5,66-20,121-11c-51-16-75-16-111-7L867.8,298.5z"/>
<path id="s-branch-14" class="st0" d="M1034,192.5c6-14-7.5-83.5-9.5-113.5c-12,27,13,109-7,115L1034,192.5z"/>
<path id="s-branch-13" class="st0" d="M938.3,205.5c-10-17-22.2-42.7-27-72c-8,29,16.5,51.5,15,79L938.3,205.5z"/>
<path id="s-branch-12" class="st0" d="M863.6,286.3c-20-22-34-40-41-68c-5,33,24,57,34,78L863.6,286.3z"/>
<path id="s-branch-11" class="st0" d="M739.5,384.3c0-28,35-63,78-89c-77,25-89.2,94.1-105.5,97.5L739.5,384.3z"/>
<path id="s-branch-10" class="st0" d="M705.3,267c8.1-16.7,12.2-66.2,18-122c5-48,49-102,87-124c-65,22-92,90-99,123
	c-7.1,33.3-13,107-30,144L705.3,267z"/>
<path id="s-branch-9" class="st0" d="M682.5,289.5c-16-38-49-80-93.5-85.5c50,12,81.5,81.5,83.5,102.5L682.5,289.5z"/>
<path id="s-branch-8" class="st0" d="M555.3,330c-2-8.2,42-69,36-93c-10,33-30,62-44,71L555.3,330z"/>
<path id="s-branch-7" class="st0" d="M531.8,149c-10-8-28.5-34.5-34.5-53.5s9-38-5-65c6,28-9,57-2,70c-15,4-30.5-2.5-48.5-8.5
	c9,9,33,17,50,17c14.5,16.5,28.5,38.6,28.5,53.5L531.8,149z"/>
<path id="s-branch-6" class="st0" d="M516,259.5c-11-13-90.5-89.5-97.5-109.5S383,65.5,373,53.5c23,15,44.5,74.5,52.5,91.5
	c8.6,18.3,63,79,83,89L516,259.5z"/>
<path id="s-branch-5" class="st0" d="M543.3,343c-19-5-36-26-43-39c17,15,34,27,43,29V343z"/>
<path id="s-branch-4" class="st0" d="M449,378c4-15,18-73,10-104c17,26,1,102,6,111L449,378z"/>
<path id="s-branch-3" class="st0" d="M368.6,293.3c-5-5-22.5-47.5-25.5-67.5s7-79-2-98c3,14-10,60-10,78c-13-4-19-19-32-30
	c4,12,21,35,32,40c-1,11,15.5,62.5,23.5,81.5L368.6,293.3z"/>
<path id="s-branch-2" class="st0" d="M259.7,297.8c-5-6-20.5-83.5-20.5-94.5s18.5-72.5,22.5-94.5c-7,7-24,54-31,77
	c-8-11-29-45-48-56c9,11,48,68,48,90c-12,0-53-15-71-22c8,10,60,31,74,31c1,10,6.5,46.5,14.5,66.5L259.7,297.8z"/>
<path id="s-branch-1" class="st0" d="M204,294c-4,16-32.5,27.5-44.5,29.5c14-9,34.5-21.5,34.5-31.5L204,294z"/>
<path class="st1" d="M98.7,396.2C87.3,397.4,76.8,386,76.8,386s8-13.2,19.5-14.4s21.9,10.2,21.9,10.2S110.1,395.1,98.7,396.2z"/>
<path class="st1" d="M136,420c-5.6,9.8-20.7,11.8-20.7,11.8s-6-14-0.4-23.8s20.7-11.8,20.7-11.8S141.6,410.2,136,420z"/>
<path class="st1" d="M175.1,425.4c-3.1,10.9-17.3,16.4-17.3,16.4s-9.2-12.1-6.1-23s17.3-16.4,17.3-16.4S178.2,414.5,175.1,425.4z"/>
<path class="st1" d="M210.1,435.3c-3,10.9-17.1,16.5-17.1,16.5s-9.3-12.1-6.3-23s17.1-16.5,17.1-16.5S213.1,424.4,210.1,435.3z"/>
<path class="st1" d="M155.5,251.3c0.6,11.3-11,21.1-11,21.1s-12.6-8.5-13.3-19.7s11-21.1,11-21.1S154.9,240.1,155.5,251.3z"/>
<path class="st1" d="M216.3,316c6.6,9.2,2,23.7,2,23.7s-15.2-0.4-21.8-9.5s-2-23.7-2-23.7S209.7,306.8,216.3,316z"/>
<path class="st1" d="M212.5,373.5c-1.3,11.2-14.5,18.9-14.5,18.9s-11-10.5-9.6-21.8s14.5-18.9,14.5-18.9S213.8,362.3,212.5,373.5z"
	/>
<path class="st1" d="M257.5,329.5c-1.3,11.2-14.5,18.9-14.5,18.9s-11-10.5-9.6-21.8s14.5-18.9,14.5-18.9S258.8,318.3,257.5,329.5z"
	/>
<path class="st1" d="M298.5,337.5c-1.3,11.2-14.5,18.9-14.5,18.9s-11-10.5-9.6-21.8s14.5-18.9,14.5-18.9S299.8,326.3,298.5,337.5z"
	/>
<path class="st1" d="M357.6,91c-10.2,4.8-23.7-2.2-23.7-2.2s3.1-14.9,13.3-19.7s23.7,2.2,23.7,2.2S367.8,86.2,357.6,91z"/>
<path class="st1" d="M153.4,160.8c4.9,10.2-2.1,23.7-2.1,23.7s-14.9-3-19.8-13.2s2.1-23.7,2.1-23.7S148.5,150.6,153.4,160.8z"/>
<path class="st1" d="M163.9,223.7c-8.1,7.9-23.1,5.6-23.1,5.6s-2-15.1,6.1-23s23.1-5.6,23.1-5.6S172,215.8,163.9,223.7z"/>
<path class="st1" d="M282.9,91.7c-8.1,7.9-23.1,5.7-23.1,5.7s-2-15.1,6.1-23s23.1-5.7,23.1-5.7S291,83.8,282.9,91.7z"/>
<path class="st1" d="M302.3,142.5c2.4,11-7.6,22.5-7.6,22.5s-13.8-6.4-16.2-17.5s7.6-22.6,7.6-22.6S299.9,131.4,302.3,142.5z"/>
<path class="st1" d="M211.5,107.9c-4.6,10.3-19.4,13.8-19.4,13.8s-7.4-13.3-2.9-23.6s19.4-13.8,19.4-13.8S216.1,97.6,211.5,107.9z"
	/>
<path class="st1" d="M224.5,242.5c-1.3,11.2-14.5,18.9-14.5,18.9s-11-10.5-9.6-21.8s14.5-18.9,14.5-18.9S225.8,231.3,224.5,242.5z"
	/>
<path class="st1" d="M112.4,250.2c1.8,11.2-8.8,22.1-8.8,22.1s-13.4-7.2-15.2-18.3s8.8-22.1,8.8-22.1S110.7,239,112.4,250.2z"/>
<path class="st1" d="M73.3,255.1c-6.5,9.2-21.7,9.7-21.7,9.7S47,250.3,53.5,241s21.7-9.7,21.7-9.7S79.8,245.8,73.3,255.1z"/>
<path class="st1" d="M24,296.8c-10.1,5.2-23.8-1.4-23.8-1.4s2.6-15,12.6-20.2s23.8,1.4,23.8,1.4S34,291.7,24,296.8z"/>
<path class="st1" d="M57.4,318c-6.5,9.3-21.7,9.8-21.7,9.8s-4.7-14.5,1.8-23.7s21.7-9.8,21.7-9.8S63.8,308.7,57.4,318z"/>
<path class="st1" d="M23.3,234c6.5,9.2,1.9,23.7,1.9,23.7S10,257.3,3.5,248s-1.9-23.7-1.9-23.7S16.8,224.8,23.3,234z"/>
<path class="st1" d="M138.5,310.9c-0.8,11.3-13.5,19.6-13.5,19.6s-11.5-10-10.7-21.2s13.5-19.6,13.5-19.6S139.3,299.6,138.5,310.9z"
	/>
<path class="st1" d="M178.9,368.9c-3.6,10.7-18,15.6-18,15.6s-8.6-12.5-5.1-23.2s18-15.6,18-15.6S182.5,358.1,178.9,368.9z"/>
<path class="st1" d="M141.7,359.9c2.9,10.4-6,21.9-6,21.9s-13.5-5.4-16.3-15.8s6-21.9,6-21.9S138.8,349.5,141.7,359.9z"/>
<ellipse class="st2" cx="236" cy="431.5" rx="13" ry="17"/>
<ellipse class="st2" cx="329" cy="332.5" rx="13" ry="17"/>
<ellipse class="st2" cx="84" cy="311.5" rx="13" ry="17"/>
<ellipse class="st2" cx="186" cy="229.5" rx="13" ry="17"/>
<ellipse class="st2" cx="456" cy="235.5" rx="13" ry="17"/>
<ellipse class="st2" cx="303" cy="218.5" rx="13" ry="17"/>
<ellipse class="st2" cx="479" cy="136.5" rx="13" ry="17"/>
<ellipse class="st2" cx="586" cy="305.5" rx="13" ry="17"/>
<ellipse class="st2" cx="779" cy="345.5" rx="13" ry="17"/>
<ellipse class="st2" cx="805" cy="263.5" rx="13" ry="17"/>
<ellipse class="st2" cx="924" cy="307.5" rx="13" ry="17"/>
<ellipse class="st2" cx="940" cy="409.5" rx="13" ry="17"/>
<ellipse class="st2" cx="1148" cy="409.5" rx="13" ry="17"/>
<ellipse class="st2" cx="1024" cy="230.5" rx="13" ry="17"/>
<ellipse class="st2" cx="1213" cy="290.5" rx="13" ry="17"/>
</svg>
