<svg xmlns="http://www.w3.org/2000/svg" viewBox="0 0 152.44 30.09"><defs><style>.cls-1{fill:#002856;}.cls-2{fill:#a2d45e;}.cls-3{fill:#c7893e;}.cls-4{fill:#f5e2d1;}.cls-5{fill:#b2b5b6;}</style></defs><title>HorizontalLogo</title><g id="Layer_2" data-name="Layer 2"><g id="MainRoastingMachine"><path class="cls-1" d="M23.9,8c.1,2.05,2.94,22-11.51,22.09S0,6.57.2,4.72s23.19-.91,23.19-.91Z"/><path class="cls-2" d="M21.24,19s-2.5-4.78-7.54-5.33S8.3,17.49,2.26,16c2.15,5,5.1,7.42,9.81,7.93C17.72,24.54,21.24,19,21.24,19Z"/><path class="cls-3" d="M31.33,4.35C25.22,0,22.06,0,13.32,0,5.14,0,.23,2.49.2,4.72S9.32,7,13.32,7,29.63,7.83,30,11.31c.25,2.62-3.64,5.47-11.89,6.92a22.57,22.57,0,0,0-4.36-2.72c.86.54,2.45,1.73,3.8,2.81-1,.17-2.09.32-3.24.44a21.19,21.19,0,0,0-4-2.32c.79.45,2.27,1.46,3.51,2.37-1.62.16-3.38.27-5.25.33l3.65.34c-1.06.78-2.32,1.63-3,2a18.75,18.75,0,0,0,3.47-2c1.25.12,2.36.21,3.36.29-1.19,1-2.61,2-3.37,2.5a20.36,20.36,0,0,0,3.92-2.47c5.46.37,7.7,0,11.91-2C36.5,14,35.56,7.33,31.33,4.35Z"/><path class="cls-4" d="M12.41,1C3.49,1,2.75,3.23,2.75,3.85S4.22,5.78,10.48,5.9,20,5.92,22,4.78a40.12,40.12,0,0,1-7.36.33A45,45,0,0,1,6,4.13C4,3.44,5.54,1.69,12.41,1Z"/><path class="cls-4" d="M16.07,4.24c4.46,0,5.68-1.12,5.68-1.43s-.74-1-3.87-1S9.5,2.43,8.48,3c1.65-.23,6.34-.56,7.22-.55a25.69,25.69,0,0,1,4.42.22C21.13,3,19.51,3.89,16.07,4.24Z"/><path class="cls-5" d="M43.56,20.65h.27v.21H39.19v-.21h.28a1.29,1.29,0,0,0,.94-.39,1.35,1.35,0,0,0,.41-.94V7.56a1.35,1.35,0,0,0-1.35-1.32h-.28V6h4.64v.21h-.27A1.35,1.35,0,0,0,42.2,7.56V19.32a1.26,1.26,0,0,0,.4.94A1.34,1.34,0,0,0,43.56,20.65ZM58.24,24v.21a6.87,6.87,0,0,1-1.61.19c-2.32,0-4.56-1.16-6.74-3.47l-7-7.48,5-6.27a.66.66,0,0,0,.17-.38.56.56,0,0,0-.07-.3.63.63,0,0,0-.61-.32h-.21V6h4.47v.19h-.09a2.93,2.93,0,0,0-2.29,1l-4.93,5.7,7.2,7.69a12.69,12.69,0,0,0,3.15,2.47A7.31,7.31,0,0,0,58.24,24Z"/><path class="cls-5" d="M67.26,20.65h.17v.21H62.67v-.21h.19a.78.78,0,0,0,.66-.29.9.9,0,0,0,.23-.54,1.43,1.43,0,0,0-.09-.5l-1.35-3.61H56.59l-1.42,3.63a1.46,1.46,0,0,0-.09.49.92.92,0,0,0,.22.53.8.8,0,0,0,.67.29h.19v.21H51.9v-.21h.19a1.81,1.81,0,0,0,1-.34,2.41,2.41,0,0,0,.83-1l4.79-11.4a7.76,7.76,0,0,0,.78-2.19h.19L65.4,19.32a2.36,2.36,0,0,0,.8,1A1.88,1.88,0,0,0,67.26,20.65ZM56.84,15.08h5.21l-2.54-6.8Z"/><path class="cls-5" d="M76.61,6h4.26v.21h-.2a1.87,1.87,0,0,0-1,.33,2.24,2.24,0,0,0-.81,1L73.73,19a7.56,7.56,0,0,0-.79,2.18h-.19l-6-13.58a2.2,2.2,0,0,0-.82-1,1.91,1.91,0,0,0-1-.33h-.17V6h4.77v.21h-.19a.8.8,0,0,0-.67.29.88.88,0,0,0-.22.53,1.16,1.16,0,0,0,.11.5L73,18.66,77.6,7.56a1.51,1.51,0,0,0,.09-.5.9.9,0,0,0-.23-.53.78.78,0,0,0-.66-.29h-.19Z"/><path class="cls-5" d="M93.58,20.65h.17v.21H89v-.21h.19a.8.8,0,0,0,.67-.29.88.88,0,0,0,.22-.54,1.69,1.69,0,0,0-.08-.5l-1.36-3.61H82.9l-1.42,3.63a1.46,1.46,0,0,0-.09.49.87.87,0,0,0,.23.53.79.79,0,0,0,.66.29h.2v.21H78.22v-.21h.19a1.84,1.84,0,0,0,1-.34,2.47,2.47,0,0,0,.82-1l4.79-11.4a7.76,7.76,0,0,0,.78-2.19H86l5.68,13.59a2.3,2.3,0,0,0,.81,1A1.85,1.85,0,0,0,93.58,20.65ZM83.15,15.08h5.22l-2.55-6.8Z"/><path class="cls-5" d="M101.31,15.23a5,5,0,0,0-1.1,3.11,3.5,3.5,0,0,0,1.67,3.09,3.87,3.87,0,0,0,2.22.66,4.46,4.46,0,0,0,2.15-.49,3.55,3.55,0,0,0,1.93-3c0-.1,0-.2,0-.3a4,4,0,0,0-.44-1.7A4.83,4.83,0,0,0,106.35,15l-3.81-3a3.06,3.06,0,0,1-1.25-2.52,3.7,3.7,0,0,1,1-2.62A3.5,3.5,0,0,1,105,5.73a9,9,0,0,1,1.84.22h.85l0,2.6h-.21a2,2,0,0,0-.73-1.6A2.72,2.72,0,0,0,105,6.37a2.45,2.45,0,0,0-2.51,2.53,2.3,2.3,0,0,0,.93,1.86l3.92,3.09a5.52,5.52,0,0,1,2.33,4.45,4.38,4.38,0,0,1-1.55,3.35,5.11,5.11,0,0,1-3.56,1.2,5.61,5.61,0,0,1-2.41-.5,4.13,4.13,0,0,1-2.4-3.18,5.09,5.09,0,0,1-.06-.86,4.8,4.8,0,0,1,.3-1.42,4.86,4.86,0,0,1,1.14-1.81Z"/><path class="cls-5" d="M125.59,20.65h.17v.21H121v-.21h.19a.8.8,0,0,0,.67-.29.88.88,0,0,0,.22-.54,1.42,1.42,0,0,0-.08-.5l-1.36-3.61h-5.72l-1.42,3.63a1.73,1.73,0,0,0-.08.49.86.86,0,0,0,.22.53.8.8,0,0,0,.67.29h.19v.21h-4.26v-.21h.19a1.84,1.84,0,0,0,1-.34,2.49,2.49,0,0,0,.83-1l4.78-11.4a7.58,7.58,0,0,0,.79-2.19h.19l5.68,13.59a2.21,2.21,0,0,0,.8,1A1.85,1.85,0,0,0,125.59,20.65Zm-10.42-5.57h5.21l-2.54-6.8Z"/><path class="cls-5" d="M128.14,19a7.57,7.57,0,0,1-2.1-5.57,7.61,7.61,0,0,1,2.1-5.59,7.41,7.41,0,0,1,5.5-2.13,9.19,9.19,0,0,1,5.15,1.45l.42,3H139a4.68,4.68,0,0,0-1.87-2.8,6,6,0,0,0-3.51-1,5.45,5.45,0,0,0-4.35,2,7.63,7.63,0,0,0-1.67,5.13,7.56,7.56,0,0,0,1.67,5.11,5.49,5.49,0,0,0,4.35,2,7.21,7.21,0,0,0,2.62-.48,6.82,6.82,0,0,0,2.17-1.36V14.93a.85.85,0,0,0-.29-.71,1.18,1.18,0,0,0-.79-.24H137v-.22h4.15V14h-.31a1.19,1.19,0,0,0-.81.24.83.83,0,0,0-.25.71v3.5a6.74,6.74,0,0,1-1.32,1.29,7.45,7.45,0,0,1-2,1,8.68,8.68,0,0,1-2.79.44A7.53,7.53,0,0,1,128.14,19Z"/><path class="cls-5" d="M142.69,20.65a1.28,1.28,0,0,0,.94-.39,1.41,1.41,0,0,0,.42-.94V7.45a1.11,1.11,0,0,0-.41-.86,1.41,1.41,0,0,0-.95-.35h-.26l0-.21h6.21a8.25,8.25,0,0,0,1.43-.13,5.78,5.78,0,0,0,1.09-.25V8.32h-.21V7.94a1.22,1.22,0,0,0-.35-.87,1.18,1.18,0,0,0-.84-.38h-4.32v6.54H149a1,1,0,0,0,.72-.31,1,1,0,0,0,.3-.74v-.3h.21v3.35H150v-.32a1,1,0,0,0-.29-.72,1,1,0,0,0-.71-.32h-3.6v6.34h3a3.65,3.65,0,0,0,2.4-.7,5.13,5.13,0,0,0,1.37-2.08h.22l-1.23,3.43h-8.8v-.21Z"/></g></g></svg>