<svg xmlns="http://www.w3.org/2000/svg" viewBox="0 0 270.24 193.44"><defs><style>.cls-1{fill:#002856;}.cls-2{fill:#a2d45e;}.cls-3{fill:#c7893e;}.cls-4{fill:#f5e2d1;}.cls-5{fill:#b2b5b6;}</style></defs><title>Logo</title><g id="Layer_2" data-name="Layer 2"><g id="LandingPage"><g id="Logo"><path class="cls-1" d="M172.22,37.9c.44,9.71,13.91,104-54.52,104.63S59.13,31.13,59.94,22.37,169.79,18,169.79,18Z"/><path class="cls-2" d="M159.6,90.11s-11.85-22.64-35.71-25.27c-24.47-2.69-25.59,18-54.18,10.94,10.18,23.66,24.14,35.15,46.47,37.56C142.91,116.23,159.6,90.11,159.6,90.11Z"/><path class="cls-3" d="M207.39,20.6C178.43.16,163.51,0,122.08,0c-38.74,0-62,11.77-62.14,22.37S103.14,33,122.08,33s77.26,4.13,78.84,20.61C202.1,66,183.65,79.5,144.58,86.34c-5.42-4-15.57-11.27-20.63-12.89,4,2.57,11.59,8.2,18,13.34q-7.23,1.18-15.34,2c-4.7-3.19-14.46-9.59-19.22-11,3.74,2.16,10.79,7,16.65,11.24q-11.55,1.14-24.88,1.55l17.31,1.61c-5,3.69-11,7.72-14.19,9.57,4-1.18,12.23-6.51,16.43-9.36,5.92.54,11.18,1,16,1.34-5.65,4.55-12.4,9.58-16,11.87,4.6-1.48,14-8.28,18.57-11.69,25.86,1.75,36.46,0,56.38-9.52C231.9,66.22,227.41,34.73,207.39,20.6Z"/><path class="cls-4" d="M117.76,4.66C75.54,4.61,72,15.31,72,18.25s7,9.12,36.65,9.71,45,.09,54.74-5.3c-15.67,2.21-26.49,1.73-34.88,1.55-11.5-.25-34-2.21-41-4.64C77.9,16.29,85.23,8,117.76,4.66Z"/><path class="cls-4" d="M135.14,20.09c21.11,0,26.88-5.32,26.88-6.8s-3.5-4.56-18.32-4.85S104,11.52,99.16,14.21c7.83-1.1,30-2.68,34.21-2.58,5.75.12,17.4-.21,20.93,1C159.07,14.27,151.4,18.41,135.14,20.09Z"/><path class="cls-5" d="M10.42,184.39h.65v.51H0v-.51H.66a3.1,3.1,0,0,0,2.25-.93,3.27,3.27,0,0,0,1-2.25V153.14a3.17,3.17,0,0,0-1-2.22A3.12,3.12,0,0,0,.66,150H0v-.51H11.07V150h-.65a3.09,3.09,0,0,0-2.25.91,3.13,3.13,0,0,0-1,2.22v28.07a3,3,0,0,0,1,2.25A3.17,3.17,0,0,0,10.42,184.39Zm35,8.09V193a16.78,16.78,0,0,1-3.84.45q-8.3,0-16.08-8.29L8.8,167.3l11.93-15a1.52,1.52,0,0,0,.4-.91,1.58,1.58,0,0,0-.15-.71,1.5,1.5,0,0,0-1.46-.76H19v-.46H29.68V150h-.2A7,7,0,0,0,24,152.34l-11.78,13.6,17.19,18.35a29.84,29.84,0,0,0,7.5,5.89A17.51,17.51,0,0,0,45.45,192.48Z"/><path class="cls-5" d="M67,184.39h.41v.51H56v-.51h.46a1.92,1.92,0,0,0,1.59-.68,2.19,2.19,0,0,0,.53-1.29,3.88,3.88,0,0,0-.2-1.21l-3.24-8.6H41.51l-3.39,8.65a3.85,3.85,0,0,0-.2,1.18,2.16,2.16,0,0,0,.53,1.27,1.9,1.9,0,0,0,1.59.68h.46v.51H30.34v-.51h.45a4.43,4.43,0,0,0,2.48-.81,5.84,5.84,0,0,0,2-2.37L46.67,154c1.24-2.73,1.87-4.46,1.87-5.2H49l13.55,32.41a5.53,5.53,0,0,0,1.92,2.37A4.51,4.51,0,0,0,67,184.39Zm-24.87-13.3H54.55l-6.06-16.23Z"/><path class="cls-5" d="M89.29,149.5H99.45V150H99a4.52,4.52,0,0,0-2.48.78,5.34,5.34,0,0,0-1.92,2.35L82.41,180.4c-1.24,2.73-1.87,4.46-1.87,5.2h-.45L65.88,153.2a5.22,5.22,0,0,0-1.95-2.41,4.64,4.64,0,0,0-2.5-.78H61v-.51H72.4V150H72a1.93,1.93,0,0,0-1.6.68,2.16,2.16,0,0,0-.53,1.27,3,3,0,0,0,.26,1.18l10.56,26.5,11-26.5a3.85,3.85,0,0,0,.2-1.18,2.16,2.16,0,0,0-.53-1.27,1.93,1.93,0,0,0-1.6-.68h-.45Z"/><path class="cls-5" d="M129.79,184.39h.4v.51H118.82v-.51h.45a1.89,1.89,0,0,0,1.59-.68,2.13,2.13,0,0,0,.53-1.29,3.61,3.61,0,0,0-.2-1.21l-3.23-8.6H104.3l-3.38,8.65a3.59,3.59,0,0,0-.21,1.18,2.16,2.16,0,0,0,.53,1.27,1.93,1.93,0,0,0,1.6.68h.45v.51H93.13v-.51h.46a4.4,4.4,0,0,0,2.47-.81,5.77,5.77,0,0,0,2-2.37L109.46,154q1.88-4.09,1.87-5.2h.46l13.55,32.41a5.46,5.46,0,0,0,1.92,2.37A4.49,4.49,0,0,0,129.79,184.39Zm-24.88-13.3h12.44l-6.07-16.23Z"/><path class="cls-5" d="M148.24,171.45a12,12,0,0,0-2.63,7.43,8.33,8.33,0,0,0,4,7.38,9.19,9.19,0,0,0,5.28,1.57,10.79,10.79,0,0,0,5.13-1.16,8.43,8.43,0,0,0,4.6-7.13,4.24,4.24,0,0,0,0-.71,9.47,9.47,0,0,0-1-4.05,11.41,11.41,0,0,0-3.37-4l-9.1-7.18a7.27,7.27,0,0,1-3-6,8.79,8.79,0,0,1,2.38-6.24A8.34,8.34,0,0,1,157,148.8a21.74,21.74,0,0,1,4.4.5h2l.1,6.22H163a4.84,4.84,0,0,0-1.75-3.82,6.52,6.52,0,0,0-4.25-1.39,5.85,5.85,0,0,0-6,6.05,5.42,5.42,0,0,0,2.23,4.42l9.35,7.38q5.57,4.4,5.56,10.62a10.42,10.42,0,0,1-3.69,8,12.17,12.17,0,0,1-8.49,2.88,13.32,13.32,0,0,1-5.77-1.21,9.79,9.79,0,0,1-5.71-7.59,11.55,11.55,0,0,1-.15-2,11.35,11.35,0,0,1,.71-3.38,11.9,11.9,0,0,1,2.73-4.33Z"/><path class="cls-5" d="M206.18,184.39h.41v.51H195.21v-.51h.46a1.9,1.9,0,0,0,1.59-.68,2.19,2.19,0,0,0,.53-1.29,3.88,3.88,0,0,0-.2-1.21l-3.24-8.6H180.7l-3.39,8.65a3.85,3.85,0,0,0-.2,1.18,2.16,2.16,0,0,0,.53,1.27,1.92,1.92,0,0,0,1.59.68h.46v.51H169.53v-.51H170a4.43,4.43,0,0,0,2.48-.81,5.77,5.77,0,0,0,2-2.37L185.86,154c1.24-2.73,1.87-4.46,1.87-5.2h.45l13.55,32.41a5.6,5.6,0,0,0,1.92,2.37A4.51,4.51,0,0,0,206.18,184.39Zm-24.87-13.3h12.44l-6.07-16.23Z"/><path class="cls-5" d="M212.28,180.5q-5-5.06-5-13.3t5-13.32q5-5.08,13.12-5.08a22.09,22.09,0,0,1,12.28,3.43l1,7.13h-.45a11.25,11.25,0,0,0-4.48-6.7,14.29,14.29,0,0,0-8.36-2.35A13,13,0,0,0,215,155q-4,4.65-4,12.23t4,12.21a13.21,13.21,0,0,0,10.39,4.68,16.8,16.8,0,0,0,6.24-1.17,16.13,16.13,0,0,0,5.18-3.23v-8.95a2.07,2.07,0,0,0-.68-1.69,2.82,2.82,0,0,0-1.9-.59h-.8V168h9.91v.5h-.76a2.77,2.77,0,0,0-1.92.59,2,2,0,0,0-.61,1.69v8.34a15.87,15.87,0,0,1-3.14,3.09,17.46,17.46,0,0,1-4.88,2.4,20.54,20.54,0,0,1-6.64,1Q217.3,185.56,212.28,180.5Z"/><path class="cls-5" d="M247,184.39a3.1,3.1,0,0,0,2.25-.93,3.27,3.27,0,0,0,1-2.25V152.89a2.62,2.62,0,0,0-1-2A3.38,3.38,0,0,0,247,150h-.61l0-.51h14.81a21.4,21.4,0,0,0,3.42-.3,13.16,13.16,0,0,0,2.6-.61V155h-.51v-.92a2.87,2.87,0,0,0-.83-2.07,2.91,2.91,0,0,0-2-.91H253.51v15.62h8.54a2.5,2.5,0,0,0,1.72-.75,2.42,2.42,0,0,0,.71-1.77v-.71H265v8h-.51v-.76a2.41,2.41,0,0,0-.68-1.72,2.49,2.49,0,0,0-1.7-.76h-8.59v15.12h7.23a8.62,8.62,0,0,0,5.71-1.67,12.31,12.31,0,0,0,3.29-4.95h.5l-2.93,8.19h-21v-.51Z"/></g></g></g></svg>